<svg width="504" height="500" viewBox="0 0 504 500" fill="none" xmlns="http://www.w3.org/2000/svg">
<path d="M0 40C0 17.9086 17.9086 0 40 0H490C495.523 0 500 4.47715 500 10V460C500 482.091 482.091 500 460 500H9.99999C4.47714 500 0 495.523 0 490V40Z" fill="#051550"/>
<circle cx="273.767" cy="100.766" r="73.7661" transform="rotate(-30 273.767 100.766)" fill="#BCDFBF"/>
<circle cx="338.394" cy="212.703" r="42.4318" transform="rotate(-30 338.394 212.703)" fill="#ADCDE8"/>
<circle cx="403.021" cy="324.641" r="73.7661" transform="rotate(-30 403.021 324.641)" fill="#C7C8E3"/>
<circle cx="136.243" cy="190.243" r="88.0239" transform="rotate(-30 136.243 190.243)" fill="#ADCDE8"/>
<circle cx="202.877" cy="306.744" r="35.3182" transform="rotate(-30 202.877 306.744)" fill="#C7C8E3"/>
<circle cx="256.67" cy="399.915" r="61.3994" transform="rotate(-30 256.67 399.915)" fill="#FFC7D8"/>
<path d="M16.0005 356.055C16.0005 348.293 22.293 342 30.0553 342H61.5448C125.861 342 178 394.139 178 458.456V458.456C178 470.354 168.355 480 156.456 480H48.0005C30.3274 480 16.0005 465.673 16.0005 448V356.055Z" fill="#BCDFBF"/>
<path d="M487 127.333C487 134.329 481.329 140 474.334 140L445.642 140C387.85 140 341 93.1505 341 35.3587V35.3587C341 24.6672 349.668 16 360.359 16L455.001 16C472.674 16 487 30.3269 487 48L487 127.333Z" fill="#FFC7D8"/>
</svg>
