<svg width="500" height="521" viewBox="0 0 500 521" fill="none" xmlns="http://www.w3.org/2000/svg">
<path d="M0 9.99999C0 4.47714 4.47715 0 10 0H460C482.091 0 500 17.9086 500 40V490C500 495.523 495.523 500 490 500H40C17.9086 500 0 482.091 0 460V9.99999Z" fill="#051550"/>
<path d="M343.68 321C351.378 307.667 370.623 307.667 378.321 321L443.272 433.5C450.97 446.833 441.348 463.5 425.952 463.5H296.048C280.652 463.5 271.03 446.833 278.728 433.5L343.68 321Z" fill="#C7C8E3"/>
<rect x="273" y="44" width="180" height="180" rx="20" fill="#FFC7D8"/>
<circle cx="114" cy="134" r="90" fill="#BCDFBF"/>
<path d="M109.245 316.635C110.741 312.029 117.259 312.029 118.755 316.635L133.084 360.734C133.753 362.794 135.673 364.188 137.839 364.188H184.207C189.05 364.188 191.064 370.387 187.146 373.234L149.633 400.488C147.881 401.761 147.148 404.018 147.817 406.078L162.145 450.176C163.642 454.783 158.37 458.613 154.451 455.766L116.939 428.512C115.186 427.239 112.814 427.239 111.061 428.512L73.5488 455.766C69.6303 458.613 64.3578 454.783 65.8546 450.176L80.183 406.078C80.8524 404.018 80.1191 401.761 78.3667 400.488L40.8544 373.234C36.9358 370.387 38.9497 364.188 43.7933 364.188H90.161C92.3272 364.188 94.2469 362.794 94.9163 360.734L109.245 316.635Z" fill="#ADCDE8"/>
</svg>
